<?xml version="1.0" encoding="UTF-8"?>
<svg id="Camada_1" data-name="Camada 1" xmlns="http://www.w3.org/2000/svg" viewBox="0 0 1806.63 810.61">
  <defs>
    <style>
      .cls-1 { stroke-width: 0px; fill: #F0EDE8; }
    </style>
  </defs>
  <path class="cls-1" d="m363.18,273.06c-3.55,1.69-5.05,2.94-6.61,3.03-2.99.17-6.02-.32-9.03-.53,1.12-3.45,1.28-7.95,3.6-10.09,3.42-3.15,8.2-5.74,12.76-6.54,7.91-1.39,11.12-6.6,14.44-12.85,24.9-46.76,50.09-93.37,74.96-140.14,3.42-6.44,9.76-13.61-2.31-20.76,5.32-2.53,9.04-5.23,13.13-6.07,11.4-2.33,18.04,3.99,14.36,14.79-5.02,14.74-10.87,29.39-18.15,43.13-17.48,32.96-36.02,65.36-54.1,98-1.37,2.47-2.47,5.08-4.56,9.42,9.41-2.9,17.44-5.1,25.28-7.84,61.76-21.56,123.94-42.04,185.07-65.28,40.34-15.33,79.71-33.55,118.42-52.68,21.25-10.5,40.87-24.73,59.98-38.95,8.54-6.35,15.19-16.15,20.56-25.6,5.28-9.31,1.79-18.86-8.26-22.52-14.56-5.3-29.73-10.98-44.93-11.98-28.4-1.88-57.16-2.35-85.5-.12-62.81,4.94-124.8,15.89-185.52,32.84-44.05,12.3-88.21,24.6-131.37,39.65-73.96,25.79-145.88,56.65-214.68,94.38-37.79,20.72-75.04,42.36-108.01,70.39-9.82,8.35-18.16,18.44-27.98,28.57-4.86-1.37-6.97-5.7-1.47-12.23,9.87-11.71,20.26-23.32,32.02-33.05,33.5-27.73,70.85-49.85,108.64-71.15,83.66-47.13,171.66-84.32,263.24-112.89,56.51-17.62,114.14-31.07,172.38-41.62,55.38-10.03,111.19-16.52,167.6-13.73,16.39.81,32.69,4.1,48.95,6.8,4.96.82,9.77,3.13,14.39,5.32,26.64,12.64,33.8,38.17,15.49,61.24-9.77,12.31-21.99,23.25-34.77,32.51-37.84,27.44-80.15,46.96-123.52,63.56-52.85,20.23-106.54,38.27-159.96,56.99-11.42,4-23.25,6.83-34.65,11.55,4.5-.38,9.01-.72,13.51-1.15,41.69-4,83.3-4.28,124.06,6.62,12.46,3.33,24.86,8.73,35.77,15.61,25.68,16.19,30.66,34.01,19.12,63.03,12.34-2.13,23.4-1.3,31.93-14.67,15.17-23.78,38.82-36.29,67.35-38.19,10.9-.72,16.78,3.02,20.74,13.51-16.49-4.31-30.52.22-43.59,8.78-12.92,8.46-25.55,17.13-29.86,34.74,6.43-3.02,13.29-5.38,19.2-9.2,9.8-6.34,18.79-13.92,28.52-20.38,5.85-3.88,12.26-9.22,20.17-1.62-5.1,8.5-10.04,16.73-14.98,24.96.85,1,1.7,2,2.55,3,5.86-2.15,12.54-3.16,17.41-6.68,12.91-9.33,25.3-19.45,37.31-29.91,3.4-2.96,4.15-8.8,7.3-12.24,3.99-4.36,8.89-8.16,14.04-11.06,1.72-.97,6.27.85,7.93,2.77,1.28,1.49.73,5.39-.19,7.75-1.32,3.38-3.71,6.34-5.78,9.71,3.49,5.83,16.33,4.3,13.45,14.54-1.82,6.46-6.98,11.99-11.79,19.81,3.92-.37,6.29-.08,8.24-.86,22.25-8.85,41.03-22.74,54.97-42.04,30.59-42.34,59.61-85.88,96.72-123.04,6.18-6.19,13.28-11.59,20.53-16.52,2.1-1.43,6.19.06,9.37.22-.78,2.71-.84,5.98-2.45,8.04-23.42,29.85-47.37,59.28-70.49,89.36-13.99,18.2-26.77,37.33-40.06,55.99,12.15-5.97,23.51-13.26,35.95-17.08,9.02-2.77,20.17-3.31,29.09-.62,15.13,4.56,16.84,16.61,6.04,28.32-17.7,19.2-39.7,30.26-65.27,34.38-6.43,1.04-13.07,1.89-19.52,1.46-13.74-.9-18.59-9.09-13.6-21.76.8-2.03,1.82-3.97,1.65-7.18-4.93,2.97-9.77,6.13-14.82,8.88-8.74,4.76-17.37,9.83-26.48,13.75-10.15,4.36-19.37,2.62-23.6-3.14-4.42-6.01-2.87-13.81,4.58-23.2,1.04-1.31,2.01-2.68,3.06-4.08-4.35-5.06-7.83-4.78-13.06-.65-13.84,10.91-28.22,21.18-42.73,31.19-3.84,2.65-8.82,4.04-13.49,5.05-13.31,2.9-20.02-1.5-22.81-14.78-7.48,4.85-14.41,10.44-22.24,14.09-6.48,3.02-14.13,5.43-21.07,5-5.48-.34-10.66-5.43-15.97-8.41.37-.81.75-1.62,1.12-2.43-8.63,1.52-17.3,2.84-25.85,4.7-2.58.56-5.68,2.02-7.13,4.06-26.67,37.68-63.55,63.35-101.89,87.43-77.39,48.61-160.23,85.4-247.42,112.11-40.45,12.4-81.76,22.16-123,31.77-19.93,4.64-40.57,6.71-61.19,2.93-1.95-.36-3.91-.74-5.82-1.3-17.86-5.21-21.73-17.25-7.5-28.8,16.73-13.59,34.73-25.95,53.36-36.81,60.12-35.06,123.16-64.08,188.06-89.26,57.32-22.24,115.27-42.53,174.63-58.52,31.54-8.5,63.35-16.12,95.24-23.21,16.65-3.7,22.31-14.85,25.11-32.41,2.27-14.28-6.98-22.73-17.68-27.29-16.09-6.85-33.02-13.4-50.19-15.73-49.34-6.68-98.93-7.01-148.32.98-11.23,1.82-22.64,2.84-33.66,5.5-4.3,1.04-9.35,4.75-11.35,8.64-24.78,48.04-49.04,96.35-73.47,144.58-1.41,2.78-2.69,5.75-4.66,8.1-1.58,1.88-4.13,2.96-6.24,4.4-.94-2.61-3.25-5.64-2.6-7.76,5.32-17.33,9.84-35.09,17.18-51.57,13.76-30.91,29.25-61.05,44-91.52.7-1.45,1.28-2.96,2.68-6.25Zm-242.11,278.48c2.45,2.27,2.96,3.11,3.67,3.32,1.33.4,2.78.71,4.15.59,15.3-1.31,30.77-1.72,45.86-4.27,59.41-10.03,116.54-28.19,172.63-49.84,63.63-24.56,124.9-54.06,183.76-88.48,32.23-18.85,62.66-40.28,90.78-68.09-30.94,7.97-60.34,14.53-89.09,23.21-37.26,11.26-74.1,23.97-110.97,36.51-55.52,18.87-109.83,40.82-162.24,67.12-37.4,18.76-74.25,38.65-110.91,58.83-9.89,5.45-18.2,13.78-27.64,21.1Zm794.69-230.83c25.83.67,68.35-24.21,69.06-39.95-20.48-2.89-60.11,19.81-69.06,39.95Z"/>
  <path class="cls-1" d="m605.61,593.31c-15.21,2.68-30.21,5.53-45.29,7.89-5.6.87-11.55,1.51-17.02.5-3.85-.71-7.16-4.36-10.71-6.69,3.13-2.16,5.99-5.49,9.44-6.29,22.99-5.34,46.17-9.92,69.14-15.35,3.85-.91,8.42-3.97,10.27-7.35,26.77-48.67,53.16-97.55,79.56-146.42,1.85-3.42,3.09-7.17,5.35-12.54-17.42,4.69-33.37,8.52-49.04,13.29-38.71,11.77-76.77,25.25-111.97,45.64-5.67,3.28-10.91,7.33-16.69,10.37-2.26,1.19-5.48.55-8.26.74.62-2.78.28-6.86,2.01-8.13,11.43-8.37,22.6-17.51,35.15-23.84,46.97-23.68,97.08-38.8,147.76-52.2,46.84-12.38,94.31-20.97,142.52-26.01,40.5-4.23,80.93-5.56,121.05,2.06,12.91,2.45,25.78,7.41,37.44,13.57,19.27,10.18,24.47,29.88,12.05,47.92-7.93,11.51-18.34,21.98-29.48,30.49-30.35,23.19-65.21,38.34-100.4,52.58-48.85,19.76-98.76,36.37-149.85,49.27-33.6,8.49-67.49,15.86-101.12,24.23-3.45.86-7.18,4.55-8.89,7.89-23.06,45.11-45.44,90.57-68.74,135.55-12.83,24.75-26.97,48.82-40.84,73.02-1.7,2.97-5.4,4.78-8.18,7.13-.17-4.13-1.77-8.87-.3-12.3,13.2-30.87,26.46-61.74,40.65-92.16,17.68-37.9,36.28-75.37,54.39-112.84Zm39.75-27.18c3.11-.18,5.35.06,7.39-.47,40.68-10.66,81.67-20.29,121.92-32.39,62.7-18.84,124.47-40.41,180.61-75.19,15.31-9.48,30.46-19.38,40.38-34.97,8.96-14.07,6.76-21.84-7.74-29.95-17.6-9.85-37.17-13.39-56.7-13.6-29.88-.31-60.01-.04-89.62,3.47-36.31,4.3-72.21,12.13-108.24,18.68-1.97.36-4.22,2.59-5.18,4.52-14.64,29.56-28.64,59.45-43.72,88.79-12.2,23.72-25.66,46.8-39.1,71.12Z"/>
  <path class="cls-1" d="m1284.17,556.18c-9.71,4.49-18.61,8.96-27.8,12.71-4.14,1.69-8.81,2.32-13.3,2.82-8.59.96-15.1-2.13-17.87-11-10.15,5.41-19.75,10.87-29.67,15.65-4.81,2.31-10.16,4.22-15.42,4.76-14.42,1.49-21.42-9.03-14.94-22.04,1.73-3.47,4.38-6.47,6.75-9.9-6.89-4.21-12.63-3.15-19.53,1.2-17.34,10.93-35.34,20.81-53.14,31-1.94,1.11-4.23,1.7-6.43,2.27-7.55,1.93-16.3,4.49-21.43-2.6-3.15-4.35-2.04-11.78-2.89-18.15-6.11,3.54-13.35,8.95-21.46,12.15-13.65,5.38-27.59,10.75-41.91,13.48-11.59,2.21-22.56-2.06-27.59-14.4-9.57,5.51-18.57,11.68-28.4,15.98-6.16,2.7-13.72,4.17-20.34,3.41-11.31-1.29-14.94-10.94-9.09-20.88,1.72-2.93,3.59-5.77,5.39-8.66-11.03-6.63-11.15-6.43-20.2.6-18.27,14.19-36.55,28.86-59.4,34.72-10.73,2.75-22.49,3.57-33.53,2.55-17.81-1.65-25.47-18.07-15.95-33.32,13.48-21.59,34.73-30.74,59.07-32.42,5.47-.38,13.9,3.5,16.41,7.98,3.95,7.04-2.58,13.45-8.13,17.96-13.51,10.98-29.41,17.17-46.14,21.41-2.1.53-4.21,1.06-7.52,1.9,10.63,7.91,21.29,5.19,30.54,2.38,28.35-8.62,53.57-22.4,69.86-48.77,1.79-2.89,5.06-5.73,8.22-6.64,2.7-.78,6.93.43,9.1,2.33,1.32,1.15.2,5.32-.16,8.09-.21,1.64-1.08,3.18-2.02,5.76,4.37,1.48,8.6,2.77,12.73,4.34,7.15,2.73,8.69,7.73,4.53,14.16-2.71,4.19-5.42,8.38-8.14,12.58.47.7.94,1.4,1.4,2.11,3.27-.81,7.07-.81,9.73-2.55,12.56-8.25,25.57-16.07,36.97-25.75,13.39-11.38,26.32-22.76,44.29-26.07,6.62-1.22,12.98-.64,16.66,5.46,3.86,6.4,1.37,12.52-4.43,16.36-13.14,8.68-26.65,16.8-40.83,25.66,3.97.23,8.78,1.5,13.13.6,27.44-5.71,51.07-18.94,72.02-37.37,3.05-2.69,6.97-5.42,10.77-5.91,2.88-.37,7.03,2.12,9.06,4.61,1.24,1.52.34,5.95-1.04,8.18-3.29,5.3-7.58,9.98-11.2,15.09-2.36,3.34-4.26,7.01-7.76,12.85,5.3-.58,8.5-.08,10.73-1.32,18.38-10.24,36.84-20.38,54.67-31.5,5.97-3.72,9.87-10.6,15.34-15.33,4.75-4.11,9.5-2.97,13.21,2.94-1.44,2.39-2.99,4.97-5.12,8.51,4.19,1.65,7.8,3.01,11.37,4.48,6.69,2.76,7.75,6.43,3.76,12.64-2.85,4.43-5.64,8.89-8.46,13.34.54.79,1.08,1.59,1.61,2.38,5.47-1.78,11.6-2.54,16.27-5.55,12.64-8.14,25-16.81,36.83-26.07,13.84-10.83,27.99-20.7,45.77-23.64,9.25-1.53,18.36-1.32,25.53,5.89,1.49,1.5,1.68,4.29,2.47,6.48-2.22.16-4.47.63-6.65.4-3.58-.39-7.29-2.3-10.63-1.73-19.18,3.27-34.04,13.75-45.77,28.96-.66.85-.94,2.05-1.22,3.13-.13.49.18,1.1.76,3.99,7.51-2.72,14.96-4.82,21.86-8.08,8.22-3.88,16.24-8.36,23.84-13.34,6.05-3.96,10.96-3.4,16.37,1.44-.36,1.47-.66,3.11-1.15,4.69-3.92,12.76-2.63,15.81,10.92,16.91,17.03,1.38,34.21,1.93,51.28,1.37,24.52-.8,49.02-2.7,73.49-4.53,34.39-2.56,68.72-6.4,103.15-8.02,47.91-2.24,95.89-3.99,143.84-3.93,36.78.05,73.56,3.19,110.34,5.03,3.05.15,6.08.91,9.06,3.08-3.06,0-6.12-.05-9.18,0-56.22,1.07-112.46,1.52-168.65,3.47-35.62,1.24-71.18,4.45-106.73,7.28-30.1,2.39-60.1,6.37-90.24,8.07-37.04,2.09-74.17,2.76-111.27,3.48-6.97.14-14.1-1.93-20.95-3.76-8.95-2.38-12.63-7.03-15.44-17.83Zm-471.33,19.52c18.14-7.03,34.13-13.43,46.2-27.74-13.13-3.81-35.29,9.4-46.2,27.74Zm221.39-35.33c-.85-1.19-1.71-2.38-2.56-3.57-13.77,3.84-23.03,13.99-31.83,24.76l1.77,2.46c10.88-7.88,21.75-15.77,32.63-23.65Z"/>
  <path class="cls-1" d="m1192.32,279.25c3.72,1.44,6.53,2.73,9.47,3.63,12.1,3.69,13.2,6.85,6,17.48-2.19,3.23-4.29,6.51-7.46,11.34,3.77,0,5.98.54,7.79-.08,21.95-7.53,42.25-17.81,60.62-32.46,18.59-14.82,39.14-26.92,64.11-26.54,5.79.09,11.88,3.21,17.11,6.2,2.01,1.15,1.99,5.82,2.9,8.89-2.76-.16-5.53-.28-8.28-.49-5.48-.42-11.39-2.46-16.37-1.08-23.22,6.39-41.46,20.39-56.53,38.66.22,1.04.44,2.09.66,3.13,5.43-.58,11.35.01,16.2-1.98,10.75-4.42,21.02-10.03,31.37-15.37,4.8-2.48,9.11-6.09,14.11-7.94,3-1.11,6.89.19,10.39.41-.2,2.93.61,6.49-.76,8.68-7.07,11.29-3.45,18.01,10.62,20.02,14.45,2.06,29.66,1.71,44.18-.25,47.07-6.36,93.84-15.01,140.98-20.7,32.81-3.96,66.04-5.46,99.07-.58,4.15.61,8.08,2.74,12.11,4.17-.14.9-.28,1.8-.42,2.71-3.16.49-6.33,1.47-9.48,1.41-48.66-.95-96.82,4.04-144.76,11.8-34.26,5.55-68.4,12.02-102.8,16.46-14.79,1.91-30.24.87-45.13-.98-12.2-1.52-22.5-8.1-26.09-19.77-14.64,4.7-28.89,10.04-43.56,13.76-13.94,3.53-21.44-1.88-24.76-15.64-12.9,5.92-25.6,12.31-38.77,17.55-5.31,2.11-11.82,2.95-17.45,2.12-12.63-1.86-16.59-12.01-9.66-22.7,1.53-2.36,3.37-4.51,5.07-6.76-8.73-6.56-15.78-6.08-25.85-.39-21.47,12.13-44.52,21.47-67.04,31.71-3.28,1.49-7.14,1.89-10.79,2.37-14.48,1.9-20.97-3.35-22.08-18.95-3.26,1.84-6.02,3.45-8.84,4.98-9.74,5.28-19.26,11.06-29.32,15.63-7.39,3.36-15.45,2.52-21.52-3.26-6.51-6.19-3.94-13.81-.8-20.67,11.41-24.87,52.29-45.16,76.95-37.86,4.57,1.35,8.4,5.36,12.35,8.44.69.54.79,2.92.19,3.73-.56.76-2.78,1.21-3.64.71-10.07-5.88-20.75-3.97-29.42,1.08-12.88,7.49-24.43,17.32-36.26,26.53-2.21,1.72-3.06,5.18-3.37,9.84,3.59-.94,7.51-1.24,10.71-2.93,11.09-5.84,21.8-12.41,32.92-18.18,5.52-2.86,11.51-5,17.53-6.58,2.17-.57,5.74.84,7.33,2.57,1.02,1.11.16,4.76-.87,6.75-1.41,2.73-4.08,4.79-5.61,7.48-1.01,1.76-1.91,4.65-1.12,6.07.75,1.35,4.04,2.43,5.73,1.94,32.44-9.26,64.13-20.03,88.33-45.44,2.21-2.32,5.54-4.33,8.62-4.86,3.02-.52,6.4,1.03,9.62,1.67-.66,2.77-1.24,5.57-2,8.31-.29,1.04-1,1.97-2.2,4.22Z"/>
  <path class="cls-1" d="m1536.15,602.97c-52.26.86-104.54.97-156.76,2.81-47.62,1.68-95.22,4.57-142.74,8.15-42.34,3.19-84.63,7.43-126.8,12.37-45.8,5.36-91.53,11.47-137.13,18.32-45.27,6.8-90.43,14.42-135.47,22.6-52.83,9.6-105.56,19.82-158.19,30.51-26.7,5.42-53.04,12.59-79.62,18.59-2.82.64-6.21-1.25-9.34-1.96,1.18-3.04,1.54-7.83,3.67-8.82,10.2-4.71,20.56-9.88,31.44-12.19,57.28-12.17,114.62-24.14,172.18-34.95,44.14-8.29,88.58-14.95,132.95-21.95,33.72-5.32,67.47-10.54,101.33-14.88,33.05-4.24,66.22-7.54,99.39-10.82,27.24-2.7,54.5-5.45,81.82-6.94,42.17-2.31,84.4-4.77,126.61-4.98,62.52-.31,125.05,1.28,187.58,2.15,3.08.04,6.14.92,9.21,1.42-.04.19-.09.38-.13.57Z"/>
  <path class="cls-1" d="m402.12,754.51c8.3-3.23,16.45-6.97,24.94-9.6,30.95-9.61,61.98-18.94,93.06-28.09,2.86-.84,6.31.29,9.48.5-.66,3.43-.33,7.62-2.24,10.08-2.24,2.89-6.18,5.24-9.81,6.16-32.24,8.2-64.52,16.23-96.91,23.8-5.55,1.3-11.67.18-17.53.18-.33-1.01-.66-2.02-.99-3.03Z"/>
  <path class="cls-1" d="m758.88,251.59c9.3-9.9,19.14-15.06,30.12-18.1,1.53-.42,5.32,1.57,5.3,2.37-.06,2.5-.71,5.91-2.45,7.29-8.94,7.03-19.02,10.8-32.97,8.44Z"/>
  <path class="cls-1" d="m1101.11,507.99c8.55-12,23.2-18.87,31.22-14.65-3.24,13.01-21.42,21.54-31.22,14.65Z"/>
</svg>